G04 DipTrace 3.2.0.1*
G04 Bottom.gbr*
%MOIN*%
G04 #@! TF.FileFunction,Copper,L2,Bot*
G04 #@! TF.Part,Single*
%AMOUTLINE3*
4,1,4,
-0.033465,-0.033465,
-0.033465,0.033465,
0.033465,0.033465,
0.033465,-0.033465,
-0.033465,-0.033465,
0*%
G04 #@! TA.AperFunction,Conductor*
%ADD13C,0.018992*%
%ADD14C,0.01*%
G04 #@! TA.AperFunction,CopperBalancing*
%ADD15C,0.025*%
%ADD17O,0.19685X0.059055*%
G04 #@! TA.AperFunction,ComponentPad*
%ADD18O,0.11811X0.059055*%
%ADD19O,0.059055X0.11811*%
%ADD20C,0.066929*%
%ADD45OUTLINE3*%
%FSLAX26Y26*%
G04*
G70*
G90*
G75*
G01*
G04 Bottom*
%LPD*%
X557228Y2721478D2*
D13*
X683413D1*
X704142Y2700749D1*
Y2621478D1*
X557228D1*
X704142D2*
X1188591D1*
Y2709999D1*
X1394819Y2503770D1*
Y2215346D1*
X1313260Y2971496D2*
X1188591D1*
Y2709999D1*
X1057354Y2971496D2*
X1313260D1*
X1482965Y893814D2*
D14*
X1464969Y875818D1*
X1023898D1*
X1476374Y1487294D2*
Y2836546D1*
X1435164Y2877756D1*
X1276081D1*
X1063898Y1359782D2*
X1002957Y1420723D1*
X729280D1*
Y1478507D1*
Y1513507D2*
Y1660140D1*
X670657Y1718762D1*
Y1821478D1*
X557228D1*
Y821478D2*
X1001110Y821722D1*
X1095487Y2421892D2*
Y1946942D1*
X1120484Y1921945D1*
X1194799D1*
Y1915315D1*
X728528Y1166344D2*
X1201156D1*
X1201388Y1166112D1*
Y1121815D1*
X1533563Y1759824D2*
Y2927467D1*
X1239552Y3221478D1*
X557228D1*
X1575150Y866312D2*
Y1609131D1*
X1501059Y1683222D1*
Y2928724D1*
X1408306Y3021478D1*
X557228D1*
X1394819Y1815304D2*
Y1847589D1*
X1382576Y1859832D1*
X1120104D1*
X1064823Y1915113D1*
Y2258827D1*
X902172Y2421478D1*
X557228D1*
X1394819Y1715294D2*
Y1728852D1*
X1363846Y1759824D1*
X1138870D1*
X864261Y2034433D1*
Y2134423D1*
X677206Y2321478D1*
X557228D1*
X1394819Y1615283D2*
Y1641361D1*
X1376367Y1659812D1*
X1132643D1*
X844928Y1947528D1*
Y2060016D1*
X683466Y2221478D1*
X557228D1*
X1394819Y1515273D2*
Y1541371D1*
X1376390Y1559801D1*
X1120167D1*
X826765Y1853202D1*
Y1981136D1*
X686424Y2121478D1*
X557228D1*
X1401408Y1021804D2*
X1427657D1*
Y1054241D1*
X1439748Y1066332D1*
X1487650D1*
X1507650Y1086332D1*
Y1122323D1*
X1408495Y1221478D1*
X557228D1*
X1401408Y1121815D2*
Y1096735D1*
X1371005Y1066332D1*
X794971D1*
X739825Y1121478D1*
X557228D1*
X1098898Y1038832D2*
X1081543Y1021478D1*
X557228D1*
X1394819Y1415262D2*
Y1385138D1*
X1420176Y1359781D1*
X1507650D1*
X1527650Y1339781D1*
Y1035496D1*
X1458478Y966324D1*
X758551D1*
X713705Y921478D1*
X557228D1*
X1051398Y806474D2*
X866402Y621478D1*
X557228D1*
X1194799Y1415262D2*
Y1427570D1*
X1227022Y1459793D1*
X1463899D1*
X1551052Y1372639D1*
Y752979D1*
X1143617D1*
X998563Y521478D1*
X557228D1*
X1181488Y3161478D2*
X1141488Y3121478D1*
X557228D1*
X1602650Y921793D2*
Y2895877D1*
X1339211Y3159315D1*
X1401408Y921794D2*
X1515150D1*
Y921793D1*
X732388Y1721627D2*
X914594D1*
X1120949Y1515273D1*
X1194799D1*
X701778Y1634475D2*
Y1370101D1*
X653155Y1321478D1*
X557228D1*
X920505Y2359399D2*
Y2059092D1*
X919869D1*
X1313260Y2794331D2*
X1433066Y2674525D1*
Y2361478D1*
D15*
X1095487Y2421892D3*
X728528Y1166344D3*
X1533563Y1759824D3*
X1575150Y866312D3*
X1098898Y1038832D3*
X1051398Y806474D3*
X1181488Y3161478D3*
X1339211Y3159315D3*
X1602650Y921793D3*
X1515150D3*
X732388Y1721627D3*
X701778Y1634475D3*
X919869Y2059092D3*
X920505Y2359399D3*
X1433066Y2361478D3*
X1001110Y821722D3*
X1063898Y1359782D3*
X1023898Y875818D3*
X1482965Y893814D3*
X1276081Y2877756D3*
X1476374Y1487294D3*
X729280Y1420723D3*
Y1478507D3*
Y1513507D3*
X647489Y3277841D2*
X1540526D1*
X1662832D2*
X1686037D1*
X671280Y3252972D2*
X1522261D1*
X1275749Y3228104D2*
X1514546D1*
X1300617Y3203235D2*
X1514546D1*
X659510Y3178366D2*
X1147200D1*
X1215787D2*
X1239853D1*
X1372242D2*
X1522154D1*
X670885Y3153497D2*
X1130693D1*
X1219088D2*
X1264720D1*
X1387851D2*
X1540311D1*
X1663047D2*
X1686037D1*
X1198706Y3128629D2*
X1289588D1*
X1412719D2*
X1686037D1*
X1166589Y3103760D2*
X1314456D1*
X1437587D2*
X1686037D1*
X660228Y3078891D2*
X1339324D1*
X1462454D2*
X1686037D1*
X670490Y3054022D2*
X1364191D1*
X1487322D2*
X1686037D1*
X1512190Y3029154D2*
X1686037D1*
X1537058Y3004285D2*
X1686037D1*
X660909Y2979416D2*
X997886D1*
X1372170D2*
X1407575D1*
X1561925D2*
X1686037D1*
X673828Y2954547D2*
X997886D1*
X1370160D2*
X1432443D1*
X1586793D2*
X1686037D1*
X684055Y2929678D2*
X999429D1*
X1115275D2*
X1153085D1*
X1224076D2*
X1272077D1*
X1354443D2*
X1457311D1*
X1611661D2*
X1686037D1*
X682117Y2904810D2*
X1153085D1*
X1224076D2*
X1249829D1*
X1446629D2*
X1470050D1*
X1632223D2*
X1686037D1*
X666220Y2879941D2*
X1153085D1*
X1224076D2*
X1237664D1*
X1633658D2*
X1686037D1*
X648386Y2855072D2*
X1153085D1*
X1224076D2*
X1245630D1*
X1633658D2*
X1686037D1*
X648458Y2830203D2*
X1010589D1*
X1104115D2*
X1153085D1*
X1224076D2*
X1266515D1*
X1360005D2*
X1439907D1*
X1633658D2*
X1686037D1*
X648493Y2805335D2*
X998962D1*
X1115741D2*
X1153085D1*
X1224076D2*
X1254852D1*
X1371667D2*
X1445361D1*
X1633658D2*
X1686037D1*
X648565Y2780466D2*
X999608D1*
X1115095D2*
X1153085D1*
X1224076D2*
X1255498D1*
X1371022D2*
X1445361D1*
X1633658D2*
X1686037D1*
X669234Y2755597D2*
X1013101D1*
X1101639D2*
X1153085D1*
X1224076D2*
X1268991D1*
X1394813D2*
X1445361D1*
X1633658D2*
X1686037D1*
X723312Y2730728D2*
X1153085D1*
X1224076D2*
X1334049D1*
X1419680D2*
X1445361D1*
X1633658D2*
X1686037D1*
X739245Y2705860D2*
X1153085D1*
X1241910D2*
X1358916D1*
X1633658D2*
X1686037D1*
X739639Y2680991D2*
X1153085D1*
X1266778D2*
X1383784D1*
X1633658D2*
X1686037D1*
X739639Y2656122D2*
X1153085D1*
X1291646D2*
X1402049D1*
X1633658D2*
X1686037D1*
X1316513Y2631253D2*
X1402049D1*
X1633658D2*
X1686037D1*
X1220416Y2606385D2*
X1243046D1*
X1341381D2*
X1402049D1*
X1633658D2*
X1686037D1*
X663493Y2581516D2*
X1267914D1*
X1366249D2*
X1402049D1*
X1633658D2*
X1686037D1*
X672213Y2556647D2*
X1292782D1*
X1391117D2*
X1402049D1*
X1633658D2*
X1686037D1*
X683696Y2531778D2*
X1317650D1*
X1633658D2*
X1686037D1*
X682727Y2506909D2*
X1342517D1*
X1633658D2*
X1686037D1*
X668409Y2482041D2*
X1359311D1*
X1633658D2*
X1686037D1*
X667835Y2457172D2*
X1085838D1*
X1105135D2*
X1359311D1*
X1633658D2*
X1686037D1*
X934167Y2432303D2*
X1058530D1*
X1132463D2*
X1359311D1*
X1633658D2*
X1686037D1*
X959035Y2407434D2*
X1060001D1*
X1130956D2*
X1359311D1*
X1633658D2*
X1686037D1*
X664641Y2382566D2*
X890448D1*
X983903D2*
X1064487D1*
X1126471D2*
X1359311D1*
X1633658D2*
X1686037D1*
X667368Y2357697D2*
X882051D1*
X1008771D2*
X1064487D1*
X1126471D2*
X1359311D1*
X1633658D2*
X1686037D1*
X708671Y2332828D2*
X889515D1*
X1033638D2*
X1064487D1*
X1126471D2*
X1359311D1*
X1633658D2*
X1686037D1*
X733539Y2307959D2*
X889515D1*
X951499D2*
X972874D1*
X1126471D2*
X1359311D1*
X1430302D2*
X1445361D1*
X1633658D2*
X1686037D1*
X665215Y2283091D2*
X672775D1*
X758407D2*
X889515D1*
X951499D2*
X997742D1*
X1126471D2*
X1359311D1*
X1430302D2*
X1445361D1*
X1633658D2*
X1686037D1*
X666866Y2258222D2*
X697643D1*
X783274D2*
X889515D1*
X951499D2*
X1022610D1*
X1258022D2*
X1331573D1*
X1633658D2*
X1686037D1*
X714413Y2233353D2*
X722537D1*
X808142D2*
X889515D1*
X951499D2*
X1033806D1*
X1276718D2*
X1312913D1*
X1633658D2*
X1686037D1*
X739280Y2208484D2*
X747365D1*
X833010D2*
X889515D1*
X951499D2*
X1033806D1*
X1279409D2*
X1310222D1*
X1633658D2*
X1686037D1*
X665754Y2183615D2*
X678516D1*
X764148D2*
X772246D1*
X857878D2*
X889515D1*
X951499D2*
X1033806D1*
X1269326D2*
X1320305D1*
X1633658D2*
X1686037D1*
X666364Y2158747D2*
X703384D1*
X789016D2*
X797118D1*
X951499D2*
X1033806D1*
X1257269D2*
X1332326D1*
X1633658D2*
X1686037D1*
X716817Y2133878D2*
X728252D1*
X813884D2*
X821984D1*
X951499D2*
X1033806D1*
X1276503D2*
X1313128D1*
X1633658D2*
X1686037D1*
X741685Y2109009D2*
X753120D1*
X951499D2*
X1033806D1*
X1279481D2*
X1310150D1*
X1633658D2*
X1686037D1*
X666292Y2084140D2*
X680957D1*
X766552D2*
X777987D1*
X951499D2*
X1033806D1*
X1269720D2*
X1319910D1*
X1633658D2*
X1686037D1*
X669988Y2059272D2*
X705824D1*
X791420D2*
X802855D1*
X958353D2*
X1033806D1*
X1256515D2*
X1333116D1*
X1633658D2*
X1686037D1*
X683122Y2034403D2*
X730692D1*
X948557D2*
X1033806D1*
X1276287D2*
X1313308D1*
X1633658D2*
X1686037D1*
X683373Y2009534D2*
X755560D1*
X931978D2*
X1033806D1*
X1279553D2*
X1310078D1*
X1633658D2*
X1686037D1*
X670849Y1984665D2*
X780427D1*
X956846D2*
X1033806D1*
X1270079D2*
X1319516D1*
X1633658D2*
X1686037D1*
X669486Y1959797D2*
X795750D1*
X875927D2*
X896082D1*
X981714D2*
X1033806D1*
X1255690D2*
X1333941D1*
X1633658D2*
X1686037D1*
X683014Y1934928D2*
X795750D1*
X900329D2*
X920950D1*
X1006582D2*
X1033806D1*
X1276108D2*
X1313523D1*
X1633658D2*
X1686037D1*
X683480Y1910059D2*
X795750D1*
X925196D2*
X945818D1*
X1279589D2*
X1310042D1*
X1633658D2*
X1686037D1*
X671316Y1885190D2*
X795750D1*
X950064D2*
X970685D1*
X1633658D2*
X1686037D1*
X664713Y1860322D2*
X795750D1*
X862435D2*
X889336D1*
X974932D2*
X995553D1*
X1633658D2*
X1686037D1*
X698014Y1835453D2*
X801958D1*
X887303D2*
X914204D1*
X999800D2*
X1020421D1*
X1633658D2*
X1686037D1*
X701674Y1810584D2*
X826575D1*
X912206D2*
X939071D1*
X1024667D2*
X1045289D1*
X1279696D2*
X1309970D1*
X1633658D2*
X1686037D1*
X701674Y1785715D2*
X851442D1*
X937074D2*
X963939D1*
X1049535D2*
X1070156D1*
X1633658D2*
X1686037D1*
X701674Y1760846D2*
X876310D1*
X961942D2*
X988807D1*
X1074403D2*
X1095060D1*
X1633658D2*
X1686037D1*
X986810Y1735978D2*
X1013675D1*
X1099271D2*
X1113935D1*
X1563038D2*
X1571638D1*
X1633658D2*
X1686037D1*
X1011677Y1711109D2*
X1038542D1*
X1279696D2*
X1309935D1*
X1532070D2*
X1571638D1*
X1633658D2*
X1686037D1*
X745991Y1686240D2*
X907170D1*
X1036545D2*
X1063410D1*
X1540861D2*
X1571638D1*
X1633658D2*
X1686037D1*
X760237Y1661371D2*
X932038D1*
X1061413D2*
X1088278D1*
X1633658D2*
X1686037D1*
X760273Y1636503D2*
X956906D1*
X1086280D2*
X1113756D1*
X1633658D2*
X1686037D1*
X760273Y1611634D2*
X981774D1*
X1279732D2*
X1309899D1*
X1507381D2*
X1529833D1*
X1633658D2*
X1686037D1*
X760273Y1586765D2*
X1006641D1*
X1507381D2*
X1544151D1*
X1633658D2*
X1686037D1*
X760273Y1561896D2*
X1031509D1*
X1507381D2*
X1544151D1*
X1633658D2*
X1686037D1*
X760273Y1537028D2*
X1056377D1*
X1507381D2*
X1544151D1*
X1633658D2*
X1686037D1*
X767737Y1512159D2*
X1081245D1*
X1279768D2*
X1309863D1*
X1507381D2*
X1544151D1*
X1633658D2*
X1686037D1*
X766696Y1487290D2*
X1113038D1*
X1514881D2*
X1544151D1*
X1633658D2*
X1686037D1*
X763969Y1462421D2*
X1138516D1*
X1504905D2*
X1544151D1*
X1633658D2*
X1686037D1*
X1028938Y1437552D2*
X1114653D1*
X1528948D2*
X1544151D1*
X1633658D2*
X1686037D1*
X1053805Y1412684D2*
X1109808D1*
X1279804D2*
X1309827D1*
X1633658D2*
X1686037D1*
X746385Y1387815D2*
X832639D1*
X939012D2*
X993077D1*
X1088972D2*
X1117416D1*
X1272196D2*
X1317434D1*
X1633658D2*
X1686037D1*
X731852Y1362946D2*
X809996D1*
X961655D2*
X1017945D1*
X1102249D2*
X1139592D1*
X1250020D2*
X1339611D1*
X1633658D2*
X1686037D1*
X712547Y1338077D2*
X799948D1*
X971702D2*
X1032693D1*
X1095108D2*
X1114904D1*
X1274708D2*
X1314922D1*
X1633658D2*
X1686037D1*
X687679Y1313209D2*
X797975D1*
X973676D2*
X1109773D1*
X1279804D2*
X1309791D1*
X1479822D2*
X1496640D1*
X1633658D2*
X1686037D1*
X670024Y1288340D2*
X803429D1*
X968222D2*
X1117093D1*
X1272519D2*
X1317111D1*
X1472538D2*
X1496640D1*
X1633658D2*
X1686037D1*
X661017Y1263471D2*
X818178D1*
X953473D2*
X1151326D1*
X1238250D2*
X1351345D1*
X1438268D2*
X1496640D1*
X1633658D2*
X1686037D1*
X1434178Y1238602D2*
X1496640D1*
X1633658D2*
X1686037D1*
X1459045Y1213734D2*
X1496640D1*
X1633658D2*
X1686037D1*
X670455Y1188865D2*
X697930D1*
X1221133D2*
X1398317D1*
X1483913D2*
X1496625D1*
X1633658D2*
X1686037D1*
X660299Y1163996D2*
X690107D1*
X1265558D2*
X1337242D1*
X1633658D2*
X1686037D1*
X1283536Y1139127D2*
X1319264D1*
X1633658D2*
X1686037D1*
X789841Y1114259D2*
X1116878D1*
X1285904D2*
X1316896D1*
X1633658D2*
X1686037D1*
X670849Y1089390D2*
X729113D1*
X1633658D2*
X1686037D1*
X659582Y1064521D2*
X753981D1*
X1633658D2*
X1686037D1*
X1633658Y1039652D2*
X1686037D1*
X1285976Y1014783D2*
X1316824D1*
X1633658D2*
X1686037D1*
X671244Y989915D2*
X740058D1*
X1633658D2*
X1686037D1*
X658864Y965046D2*
X714472D1*
X1499989D2*
X1520036D1*
X1633658D2*
X1686037D1*
X1636098Y940177D2*
X1686037D1*
X750333Y915308D2*
X1116734D1*
X1286048D2*
X1316753D1*
X1640548D2*
X1686037D1*
X671639Y890440D2*
X988484D1*
X1622857D2*
X1686037D1*
X658074Y865571D2*
X986869D1*
X1507776D2*
X1520036D1*
X1613634D2*
X1686037D1*
X1065037Y840702D2*
X1119820D1*
X1282962D2*
X1319839D1*
X1482980D2*
X1520036D1*
X1602941D2*
X1686037D1*
X1088649Y815833D2*
X1116662D1*
X1286120D2*
X1316681D1*
X1486138D2*
X1520036D1*
X1582056D2*
X1686037D1*
X671998Y790965D2*
X979908D1*
X1086388D2*
X1126207D1*
X1276574D2*
X1326226D1*
X1476593D2*
X1520036D1*
X1582056D2*
X1686037D1*
X662488Y766096D2*
X968209D1*
X1053841D2*
X1115693D1*
X1582056D2*
X1686037D1*
X681040Y741227D2*
X943342D1*
X1028973D2*
X1100120D1*
X1579509D2*
X1686037D1*
X684413Y716358D2*
X918474D1*
X1004070D2*
X1084546D1*
X1156793D2*
X1686037D1*
X675945Y691490D2*
X893606D1*
X979202D2*
X1068972D1*
X1141219D2*
X1686037D1*
X656460Y666621D2*
X868738D1*
X954334D2*
X1053363D1*
X1125645D2*
X1179531D1*
X1235164D2*
X1279505D1*
X1335137D2*
X1379514D1*
X1435111D2*
X1686037D1*
X929467Y641752D2*
X1037789D1*
X1110072D2*
X1156458D1*
X1458184D2*
X1686037D1*
X904599Y616883D2*
X1022215D1*
X1094462D2*
X1151829D1*
X1462849D2*
X1686037D1*
X672715Y592014D2*
X1006641D1*
X1078888D2*
X1151829D1*
X1462849D2*
X1541782D1*
X1660284D2*
X1686037D1*
X655563Y567146D2*
X991032D1*
X1063315D2*
X1151829D1*
X1462849D2*
X1522477D1*
X1047741Y542277D2*
X1155202D1*
X1459440D2*
X1514187D1*
X1032131Y517408D2*
X1174615D1*
X1240080D2*
X1274589D1*
X1340053D2*
X1374562D1*
X1440063D2*
X1513649D1*
X673074Y492539D2*
X1520682D1*
X653553Y467671D2*
X1537907D1*
X1664195D2*
X1686037D1*
X653625Y442802D2*
X1590872D1*
X1611243D2*
X1686037D1*
X670806Y492973D2*
X666448Y487039D1*
X660565Y481155D1*
X653833Y476264D1*
X651037Y474699D1*
X651121Y440526D1*
X1688512Y440513D1*
X1688537Y3302689D1*
X644929Y3302710D1*
X644995Y3271064D1*
X650200Y3268726D1*
X657295Y3264378D1*
X663622Y3258974D1*
X669026Y3252647D1*
X670806Y3249982D1*
X1241789Y3249890D1*
X1246206Y3249190D1*
X1250459Y3247808D1*
X1254444Y3245778D1*
X1258062Y3243149D1*
X1315198Y3186137D1*
X1320401Y3190010D1*
X1325435Y3192575D1*
X1330807Y3194320D1*
X1336387Y3195204D1*
X1342036D1*
X1347615Y3194320D1*
X1352988Y3192575D1*
X1358021Y3190010D1*
X1362591Y3186690D1*
X1366586Y3182695D1*
X1369906Y3178125D1*
X1372471Y3173092D1*
X1374217Y3167719D1*
X1374886Y3163949D1*
X1624321Y2914386D1*
X1626950Y2910768D1*
X1628980Y2906783D1*
X1630362Y2902530D1*
X1631062Y2898113D1*
X1631150Y2804013D1*
Y943813D1*
X1634726Y938136D1*
X1636888Y932917D1*
X1638206Y927424D1*
X1638650Y921793D1*
X1638206Y916161D1*
X1636888Y910668D1*
X1634726Y905449D1*
X1631774Y900632D1*
X1628105Y896337D1*
X1623810Y892668D1*
X1618993Y889716D1*
X1613774Y887555D1*
X1608281Y886236D1*
X1605353Y885899D1*
X1608409Y880089D1*
X1610155Y874716D1*
X1611039Y869137D1*
Y863488D1*
X1610155Y857908D1*
X1608409Y852536D1*
X1605845Y847502D1*
X1602524Y842932D1*
X1598530Y838938D1*
X1593960Y835617D1*
X1588926Y833053D1*
X1583554Y831307D1*
X1579542Y830609D1*
X1579465Y750743D1*
X1578765Y746326D1*
X1577383Y742072D1*
X1575353Y738088D1*
X1572724Y734470D1*
X1569562Y731307D1*
X1565944Y728679D1*
X1561959Y726648D1*
X1557706Y725266D1*
X1553289Y724567D1*
X1459189Y724479D1*
X1159377D1*
X1021620Y504726D1*
X1018716Y501325D1*
X1015315Y498421D1*
X1011502Y496084D1*
X1007370Y494372D1*
X1003021Y493328D1*
X998563Y492978D1*
X670833D1*
X650839Y568368D2*
X657295Y564378D1*
X663622Y558974D1*
X669026Y552647D1*
X670806Y549982D1*
X982779Y549978D1*
X1120728Y769960D1*
X1123666Y773331D1*
X1127095Y776202D1*
X1130931Y778500D1*
X1135080Y780171D1*
X1137248Y780758D1*
X1137422Y781461D1*
X1131538Y787345D1*
X1126647Y794077D1*
X1122870Y801491D1*
X1120298Y809404D1*
X1118997Y817623D1*
Y825944D1*
X1120298Y834163D1*
X1122870Y842076D1*
X1125432Y847319D1*
X1045877Y847318D1*
X1040241Y843741D1*
X1035022Y841580D1*
X1031805Y840532D1*
X1033385Y837634D1*
X1037621Y839733D1*
X1042994Y841479D1*
X1048573Y842363D1*
X1054222D1*
X1059802Y841479D1*
X1065174Y839733D1*
X1070208Y837169D1*
X1074778Y833848D1*
X1078772Y829854D1*
X1082093Y825284D1*
X1084657Y820250D1*
X1086403Y814878D1*
X1087287Y809298D1*
Y803649D1*
X1086403Y798070D1*
X1084657Y792697D1*
X1082093Y787664D1*
X1078772Y783094D1*
X1074778Y779099D1*
X1070208Y775779D1*
X1065174Y773214D1*
X1059802Y771468D1*
X1056031Y770799D1*
X884911Y599806D1*
X881293Y597177D1*
X877308Y595147D1*
X873055Y593765D1*
X868638Y593066D1*
X774538Y592978D1*
X670869D1*
X666448Y587039D1*
X660565Y581155D1*
X653833Y576264D1*
X650839Y574587D1*
X650844Y568417D1*
X650640Y668479D2*
X657295Y664378D1*
X663622Y658974D1*
X669026Y652647D1*
X670806Y649982D1*
X854601Y649978D1*
X991616Y786998D1*
X987334Y788462D1*
X982300Y791027D1*
X979178Y793206D1*
X670884Y793040D1*
X666448Y787039D1*
X660565Y781155D1*
X653833Y776264D1*
X650413Y774349D1*
X651558Y771392D1*
X659054Y766799D1*
X665738Y761090D1*
X671447Y754405D1*
X676040Y746910D1*
X679404Y738789D1*
X681456Y730241D1*
X682146Y721478D1*
X681456Y712714D1*
X679404Y704167D1*
X676040Y696045D1*
X671447Y688550D1*
X665738Y681866D1*
X659054Y676157D1*
X651558Y671564D1*
X650607Y671125D1*
X650628Y668533D1*
X650185Y868732D2*
X657295Y864378D1*
X663622Y858974D1*
X669026Y852647D1*
X670770Y850036D1*
X979103Y850210D1*
X984767Y853798D1*
X989986Y855960D1*
X993203Y857008D1*
X990638Y862041D1*
X988892Y867414D1*
X988009Y872993D1*
Y878642D1*
X988892Y884222D1*
X990638Y889594D1*
X993203Y894628D1*
X996523Y899198D1*
X1000518Y903192D1*
X1005088Y906513D1*
X1010121Y909077D1*
X1015494Y910823D1*
X1021073Y911707D1*
X1026722D1*
X1032302Y910823D1*
X1037674Y909077D1*
X1042708Y906513D1*
X1045847Y904320D1*
X1121826Y904318D1*
X1120298Y909415D1*
X1118997Y917633D1*
Y925954D1*
X1120298Y934173D1*
X1121327Y937820D1*
X770327Y937824D1*
X732214Y899806D1*
X728596Y897177D1*
X724611Y895147D1*
X720358Y893765D1*
X715941Y893066D1*
X670823Y892978D1*
X666448Y887039D1*
X660565Y881155D1*
X653833Y876264D1*
X650185Y874223D1*
X650195Y868695D1*
X649978Y968828D2*
X657295Y964378D1*
X663622Y958974D1*
X669026Y952647D1*
X670806Y949982D1*
X701878Y949978D1*
X740042Y987996D1*
X743660Y990624D1*
X747653Y992658D1*
X732462Y992978D1*
X670849D1*
X666448Y987039D1*
X660565Y981155D1*
X653833Y976264D1*
X649978Y974128D1*
Y968811D1*
X649772Y1068923D2*
X657295Y1064378D1*
X663622Y1058974D1*
X669026Y1052647D1*
X670806Y1049982D1*
X770990Y1049978D1*
X728004Y1092994D1*
X670820Y1092978D1*
X666448Y1087039D1*
X660565Y1081155D1*
X653833Y1076264D1*
X649742Y1074019D1*
X649761Y1068928D1*
X649535Y1169032D2*
X653833Y1166691D1*
X660565Y1161800D1*
X666448Y1155916D1*
X670806Y1149982D1*
X696451Y1150000D1*
X694290Y1155219D1*
X692971Y1160712D1*
X692528Y1166344D1*
X692971Y1171975D1*
X694290Y1177468D1*
X696451Y1182687D1*
X699403Y1187504D1*
X703072Y1191800D1*
X704345Y1192976D1*
X670824Y1192978D1*
X666448Y1187039D1*
X660565Y1181155D1*
X653833Y1176264D1*
X649535Y1173923D1*
X649329Y1269127D2*
X653833Y1266691D1*
X660565Y1261800D1*
X666448Y1255916D1*
X670806Y1249982D1*
X835151Y1249978D1*
X830268Y1253847D1*
X825336Y1258407D1*
X820776Y1263339D1*
X816618Y1268614D1*
X812886Y1274199D1*
X809604Y1280060D1*
X806791Y1286160D1*
X804467Y1292462D1*
X802643Y1298927D1*
X801333Y1305515D1*
X800543Y1312186D1*
X800280Y1318898D1*
X800543Y1325610D1*
X801333Y1332280D1*
X802643Y1338868D1*
X804467Y1345333D1*
X806791Y1351635D1*
X809604Y1357735D1*
X812886Y1363596D1*
X816618Y1369181D1*
X820776Y1374456D1*
X825336Y1379389D1*
X830268Y1383948D1*
X835543Y1388107D1*
X841792Y1392210D1*
X751301Y1392223D1*
X745623Y1388647D1*
X740404Y1386485D1*
X734911Y1385166D1*
X730284Y1384763D1*
X730190Y1367865D1*
X729491Y1363448D1*
X728109Y1359195D1*
X726078Y1355210D1*
X723450Y1351592D1*
X676301Y1304318D1*
X673374Y1297404D1*
X669026Y1290309D1*
X663622Y1283982D1*
X657295Y1278577D1*
X650200Y1274230D1*
X649329Y1273828D1*
X651387Y1471471D2*
X659054Y1466799D1*
X665738Y1461090D1*
X671447Y1454405D1*
X673270Y1451677D1*
X673278Y1491210D1*
X668724Y1485096D1*
X662508Y1478880D1*
X655396Y1473713D1*
X651387Y1471485D1*
Y1571471D2*
X659054Y1566799D1*
X665738Y1561090D1*
X671447Y1554405D1*
X673270Y1551677D1*
X673278Y1591255D1*
X668724Y1585096D1*
X662508Y1578880D1*
X655396Y1573713D1*
X651387Y1571485D1*
X648029Y1869727D2*
X653833Y1866691D1*
X660565Y1861800D1*
X666448Y1855916D1*
X670806Y1849982D1*
X675116Y1849627D1*
X679465Y1848583D1*
X683596Y1846872D1*
X687409Y1844535D1*
X690810Y1841630D1*
X693715Y1838230D1*
X696051Y1834416D1*
X697763Y1830285D1*
X698807Y1825936D1*
X699157Y1821469D1*
X699158Y1735463D1*
X701693Y1740437D1*
X705014Y1745007D1*
X709008Y1749002D1*
X713579Y1752322D1*
X718612Y1754887D1*
X723984Y1756633D1*
X729564Y1757516D1*
X735213D1*
X740792Y1756633D1*
X746165Y1754887D1*
X751198Y1752322D1*
X754338Y1750130D1*
X889525Y1750127D1*
X805093Y1834693D1*
X802465Y1838311D1*
X800434Y1842296D1*
X799052Y1846549D1*
X798353Y1850966D1*
X798265Y1945066D1*
Y1969359D1*
X674643Y2092954D1*
X669026Y2090309D1*
X663622Y2083982D1*
X657295Y2078577D1*
X650200Y2074230D1*
X647822Y2073133D1*
X655396Y2069242D1*
X662508Y2064075D1*
X668724Y2057860D1*
X673891Y2050748D1*
X677881Y2042915D1*
X680598Y2034555D1*
X681973Y2025873D1*
Y2017082D1*
X680598Y2008400D1*
X677881Y2000040D1*
X673891Y1992207D1*
X668724Y1985096D1*
X662508Y1978880D1*
X655396Y1973713D1*
X651558Y1971392D1*
X659054Y1966799D1*
X665738Y1961090D1*
X671447Y1954405D1*
X676040Y1946910D1*
X679404Y1938789D1*
X681456Y1930241D1*
X682146Y1921478D1*
X681456Y1912714D1*
X679404Y1904167D1*
X676040Y1896045D1*
X671447Y1888550D1*
X665738Y1881866D1*
X659054Y1876157D1*
X651558Y1871564D1*
X648016Y1869931D1*
X647379Y2170026D2*
X653833Y2166691D1*
X660565Y2161800D1*
X666448Y2155916D1*
X670806Y2149982D1*
X688660Y2149890D1*
X693077Y2149190D1*
X697330Y2147808D1*
X701315Y2145778D1*
X704933Y2143149D1*
X771534Y2076673D1*
X816420Y2031787D1*
X816428Y2048183D1*
X671643Y2192995D1*
X666448Y2187039D1*
X660565Y2181155D1*
X653833Y2176264D1*
X647379Y2172929D1*
X647172Y2270121D2*
X653833Y2266691D1*
X660565Y2261800D1*
X666448Y2255916D1*
X670806Y2249982D1*
X685702Y2249890D1*
X690119Y2249190D1*
X694372Y2247808D1*
X698357Y2245778D1*
X701975Y2243149D1*
X768576Y2176673D1*
X835741Y2109508D1*
X835761Y2122601D1*
X668597Y2289782D1*
X663622Y2283982D1*
X657295Y2278577D1*
X650200Y2274230D1*
X647143Y2272820D1*
X646936Y2370230D2*
X653833Y2366691D1*
X660565Y2361800D1*
X666448Y2355916D1*
X670806Y2349982D1*
X679442Y2349890D1*
X683859Y2349190D1*
X688113Y2347808D1*
X692097Y2345778D1*
X695715Y2343149D1*
X762316Y2276673D1*
X885933Y2152932D1*
X888561Y2149314D1*
X890592Y2145329D1*
X891975Y2141067D1*
X892005Y2337374D1*
X888429Y2343055D1*
X886267Y2348274D1*
X884948Y2353767D1*
X884505Y2359399D1*
X884948Y2365031D1*
X886267Y2370524D1*
X888429Y2375743D1*
X891381Y2380559D1*
X895049Y2384855D1*
X896841Y2386511D1*
X890371Y2392973D1*
X670827Y2392978D1*
X666448Y2387039D1*
X660565Y2381155D1*
X653833Y2376264D1*
X646936Y2372725D1*
X647822Y2469822D2*
X653833Y2466691D1*
X660565Y2461800D1*
X666448Y2455916D1*
X670806Y2449982D1*
X904408Y2449890D1*
X908825Y2449190D1*
X913078Y2447808D1*
X917063Y2445778D1*
X920681Y2443149D1*
X987282Y2376673D1*
X1066981Y2296973D1*
X1066987Y2399908D1*
X1063411Y2405549D1*
X1061249Y2410768D1*
X1059930Y2416261D1*
X1059487Y2421892D1*
X1059930Y2427524D1*
X1061249Y2433017D1*
X1063411Y2438236D1*
X1066362Y2443053D1*
X1070031Y2447348D1*
X1074327Y2451017D1*
X1079143Y2453969D1*
X1084362Y2456130D1*
X1089855Y2457449D1*
X1095487Y2457892D1*
X1101119Y2457449D1*
X1106611Y2456130D1*
X1111831Y2453969D1*
X1116647Y2451017D1*
X1120943Y2447348D1*
X1124611Y2443053D1*
X1127563Y2438236D1*
X1129725Y2433017D1*
X1131044Y2427524D1*
X1131487Y2421892D1*
X1131044Y2416261D1*
X1129725Y2410768D1*
X1127563Y2405549D1*
X1123989Y2399943D1*
X1123987Y2248608D1*
X1127776Y2252843D1*
X1134103Y2258247D1*
X1141198Y2262594D1*
X1148885Y2265779D1*
X1156976Y2267721D1*
X1165288Y2268373D1*
X1228487Y2268211D1*
X1236706Y2266909D1*
X1244620Y2264338D1*
X1252034Y2260560D1*
X1258765Y2255669D1*
X1264649Y2249785D1*
X1269540Y2243053D1*
X1273318Y2235639D1*
X1275889Y2227725D1*
X1277191Y2219507D1*
Y2211186D1*
X1275889Y2202967D1*
X1273318Y2195054D1*
X1269540Y2187640D1*
X1264649Y2180908D1*
X1258765Y2175024D1*
X1252034Y2170133D1*
X1244620Y2166355D1*
X1241919Y2165359D1*
X1248401Y2162584D1*
X1255496Y2158236D1*
X1261823Y2152832D1*
X1267227Y2146505D1*
X1271575Y2139410D1*
X1274759Y2131722D1*
X1276701Y2123631D1*
X1277354Y2115336D1*
X1276701Y2107041D1*
X1274759Y2098950D1*
X1271575Y2091262D1*
X1267227Y2084167D1*
X1261823Y2077840D1*
X1255496Y2072436D1*
X1248401Y2068088D1*
X1241919Y2065348D1*
X1248401Y2062573D1*
X1255496Y2058226D1*
X1261823Y2052822D1*
X1267227Y2046494D1*
X1271575Y2039399D1*
X1274759Y2031712D1*
X1276701Y2023621D1*
X1277354Y2015325D1*
X1276701Y2007030D1*
X1274759Y1998939D1*
X1271575Y1991251D1*
X1267227Y1984157D1*
X1261823Y1977829D1*
X1255496Y1972425D1*
X1248401Y1968078D1*
X1241919Y1965338D1*
X1248401Y1962563D1*
X1255496Y1958215D1*
X1261823Y1952811D1*
X1267227Y1946484D1*
X1271575Y1939389D1*
X1274759Y1931701D1*
X1276701Y1923610D1*
X1277354Y1915315D1*
X1276701Y1907020D1*
X1274759Y1898929D1*
X1271575Y1891241D1*
X1269946Y1888332D1*
X1319656D1*
X1316300Y1895022D1*
X1313729Y1902936D1*
X1312427Y1911154D1*
Y1919475D1*
X1313729Y1927694D1*
X1316300Y1935608D1*
X1320078Y1943022D1*
X1324969Y1949754D1*
X1330853Y1955637D1*
X1337585Y1960528D1*
X1344999Y1964306D1*
X1347699Y1965302D1*
X1341217Y1968078D1*
X1334123Y1972425D1*
X1327795Y1977829D1*
X1322391Y1984157D1*
X1318043Y1991251D1*
X1314859Y1998939D1*
X1312917Y2007030D1*
X1312264Y2015325D1*
X1312917Y2023621D1*
X1314859Y2031712D1*
X1318043Y2039399D1*
X1322391Y2046494D1*
X1327795Y2052822D1*
X1334123Y2058226D1*
X1341217Y2062573D1*
X1347699Y2065313D1*
X1341217Y2068088D1*
X1334123Y2072436D1*
X1327795Y2077840D1*
X1322391Y2084167D1*
X1318043Y2091262D1*
X1314859Y2098950D1*
X1312917Y2107041D1*
X1312264Y2115336D1*
X1312917Y2123631D1*
X1314859Y2131722D1*
X1318043Y2139410D1*
X1322391Y2146505D1*
X1327795Y2152832D1*
X1334123Y2158236D1*
X1341217Y2162584D1*
X1347699Y2165323D1*
X1341217Y2168099D1*
X1334123Y2172446D1*
X1327795Y2177850D1*
X1322391Y2184178D1*
X1318043Y2191272D1*
X1314859Y2198960D1*
X1312917Y2207051D1*
X1312264Y2215346D1*
X1312917Y2223642D1*
X1314859Y2231733D1*
X1318043Y2239420D1*
X1322391Y2246515D1*
X1327795Y2252843D1*
X1334123Y2258247D1*
X1341217Y2262594D1*
X1348905Y2265779D1*
X1356996Y2267721D1*
X1361830Y2268238D1*
X1361823Y2490112D1*
X1221603Y2630323D1*
X1221485Y2618889D1*
X1220675Y2613775D1*
X1219075Y2608851D1*
X1216724Y2604237D1*
X1213681Y2600048D1*
X1210020Y2596387D1*
X1205831Y2593344D1*
X1201218Y2590993D1*
X1196293Y2589393D1*
X1191179Y2588583D1*
X1124286Y2588482D1*
X667648Y2588481D1*
X663622Y2583982D1*
X657295Y2578577D1*
X650200Y2574230D1*
X647822Y2573133D1*
X655396Y2569242D1*
X662508Y2564075D1*
X668724Y2557860D1*
X673891Y2550748D1*
X677881Y2542915D1*
X680598Y2534555D1*
X681973Y2525873D1*
Y2517082D1*
X680598Y2508400D1*
X677881Y2500040D1*
X673891Y2492207D1*
X668724Y2485096D1*
X662508Y2478880D1*
X655396Y2473713D1*
X647860Y2469859D1*
X646281Y2670519D2*
X653833Y2666691D1*
X660565Y2661800D1*
X666448Y2655916D1*
X667586Y2654473D1*
X671146Y2658223D1*
Y2687110D1*
X666448Y2687039D1*
X660565Y2681155D1*
X653833Y2676264D1*
X646281Y2672436D1*
X646294Y2670507D1*
X646068Y2770598D2*
X653833Y2766691D1*
X660565Y2761800D1*
X666448Y2755916D1*
X667586Y2754473D1*
X686002Y2754372D1*
X691116Y2753562D1*
X696040Y2751962D1*
X700654Y2749612D1*
X704843Y2746568D1*
X727474Y2724081D1*
X730836Y2720144D1*
X733542Y2715729D1*
X735523Y2710946D1*
X736732Y2705911D1*
X737138Y2700749D1*
Y2654495D1*
X1155601Y2654474D1*
X1155594Y2938473D1*
X1114354Y2938500D1*
X1114030Y2934355D1*
X1112530Y2929038D1*
X1109831Y2924218D1*
X1106081Y2920162D1*
X1101488Y2917093D1*
X1096305Y2915181D1*
X1090819Y2914531D1*
X1022046Y2914604D1*
X1016628Y2915682D1*
X1011611Y2917994D1*
X1007273Y2921414D1*
X1003853Y2925753D1*
X1001540Y2930770D1*
X1000462Y2936188D1*
X1000390Y2992970D1*
X670850Y2992978D1*
X666448Y2987039D1*
X660565Y2981155D1*
X653833Y2976264D1*
X647822Y2973133D1*
X655396Y2969242D1*
X662508Y2964075D1*
X668724Y2957860D1*
X673891Y2950748D1*
X677881Y2942915D1*
X680598Y2934555D1*
X681973Y2925873D1*
Y2917082D1*
X680598Y2908400D1*
X677881Y2900040D1*
X673891Y2892207D1*
X668724Y2885096D1*
X662508Y2878880D1*
X655396Y2873713D1*
X647564Y2869722D1*
X645871Y2869098D1*
X646078Y2770624D1*
X645427Y3070835D2*
X650200Y3068726D1*
X657295Y3064378D1*
X663622Y3058974D1*
X669026Y3052647D1*
X670806Y3049982D1*
X1370759Y3049978D1*
X1227725Y3193000D1*
X1198896Y3192978D1*
X1202648Y3190602D1*
X1206944Y3186934D1*
X1210613Y3182638D1*
X1213564Y3177821D1*
X1215726Y3172602D1*
X1217045Y3167109D1*
X1217488Y3161478D1*
X1217045Y3155846D1*
X1215726Y3150353D1*
X1213564Y3145134D1*
X1210613Y3140317D1*
X1206944Y3136022D1*
X1202648Y3132353D1*
X1197832Y3129401D1*
X1192613Y3127240D1*
X1186122Y3125803D1*
X1159998Y3099806D1*
X1156379Y3097177D1*
X1152395Y3095147D1*
X1148141Y3093765D1*
X1143724Y3093065D1*
X1049625Y3092978D1*
X670867D1*
X666448Y3087039D1*
X660565Y3081155D1*
X653833Y3076264D1*
X646419Y3072487D1*
X645427Y3072121D1*
X645213Y3170913D2*
X650200Y3168726D1*
X657295Y3164378D1*
X663622Y3158974D1*
X669026Y3152647D1*
X670806Y3149982D1*
X1129689Y3149978D1*
X1145771Y3166065D1*
X1147250Y3172602D1*
X1149412Y3177821D1*
X1152364Y3182638D1*
X1156032Y3186934D1*
X1160328Y3190602D1*
X1164114Y3192977D1*
X670824Y3192978D1*
X666448Y3187039D1*
X660565Y3181155D1*
X653833Y3176264D1*
X646419Y3172487D1*
X645213Y3172042D1*
X1686331Y521291D2*
X1685541Y514620D1*
X1684231Y508032D1*
X1682408Y501567D1*
X1680083Y495265D1*
X1677270Y489165D1*
X1673988Y483304D1*
X1670256Y477719D1*
X1666098Y472444D1*
X1661538Y467512D1*
X1656606Y462952D1*
X1651331Y458793D1*
X1645746Y455062D1*
X1639885Y451779D1*
X1633785Y448967D1*
X1627483Y446642D1*
X1621018Y444819D1*
X1614430Y443509D1*
X1607759Y442719D1*
X1601047Y442455D1*
X1594335Y442719D1*
X1587665Y443509D1*
X1581077Y444819D1*
X1574612Y446642D1*
X1568310Y448967D1*
X1562210Y451779D1*
X1556349Y455062D1*
X1550764Y458793D1*
X1545489Y462952D1*
X1540556Y467512D1*
X1535997Y472444D1*
X1531838Y477719D1*
X1528106Y483304D1*
X1524824Y489165D1*
X1522012Y495265D1*
X1519687Y501567D1*
X1517864Y508032D1*
X1516553Y514620D1*
X1515764Y521291D1*
X1515500Y528003D1*
X1515764Y534715D1*
X1516553Y541385D1*
X1517864Y547973D1*
X1519687Y554438D1*
X1522012Y560740D1*
X1524824Y566840D1*
X1528106Y572701D1*
X1531838Y578286D1*
X1535997Y583561D1*
X1540556Y588494D1*
X1545489Y593053D1*
X1550764Y597212D1*
X1556349Y600944D1*
X1562210Y604226D1*
X1568310Y607038D1*
X1574612Y609363D1*
X1581077Y611186D1*
X1587665Y612497D1*
X1594335Y613286D1*
X1601047Y613550D1*
X1607759Y613286D1*
X1614430Y612497D1*
X1621018Y611186D1*
X1627483Y609363D1*
X1633785Y607038D1*
X1639885Y604226D1*
X1645746Y600944D1*
X1651331Y597212D1*
X1656606Y593053D1*
X1661538Y588494D1*
X1666098Y583561D1*
X1670256Y578286D1*
X1673988Y572701D1*
X1677270Y566840D1*
X1680083Y560740D1*
X1682408Y554438D1*
X1684231Y547973D1*
X1685541Y541385D1*
X1686331Y534715D1*
X1686594Y528003D1*
X1686331Y521291D1*
X1686967Y3208847D2*
X1686178Y3202177D1*
X1684867Y3195588D1*
X1683044Y3189124D1*
X1680719Y3182822D1*
X1677907Y3176721D1*
X1674625Y3170861D1*
X1670893Y3165276D1*
X1666734Y3160001D1*
X1662175Y3155068D1*
X1657242Y3150508D1*
X1651967Y3146350D1*
X1646382Y3142618D1*
X1640521Y3139336D1*
X1634421Y3136524D1*
X1628119Y3134199D1*
X1621654Y3132375D1*
X1615066Y3131065D1*
X1608396Y3130276D1*
X1601684Y3130012D1*
X1594972Y3130276D1*
X1588301Y3131065D1*
X1581713Y3132375D1*
X1575248Y3134199D1*
X1568946Y3136524D1*
X1562846Y3139336D1*
X1556985Y3142618D1*
X1551400Y3146350D1*
X1546125Y3150508D1*
X1541193Y3155068D1*
X1536633Y3160001D1*
X1532475Y3165276D1*
X1528743Y3170861D1*
X1525461Y3176721D1*
X1522648Y3182822D1*
X1520323Y3189124D1*
X1518500Y3195588D1*
X1517190Y3202177D1*
X1516400Y3208847D1*
X1516136Y3215559D1*
X1516400Y3222271D1*
X1517190Y3228942D1*
X1518500Y3235530D1*
X1520323Y3241995D1*
X1522648Y3248297D1*
X1525461Y3254397D1*
X1528743Y3260257D1*
X1532475Y3265842D1*
X1536633Y3271118D1*
X1541193Y3276050D1*
X1546125Y3280610D1*
X1551400Y3284768D1*
X1556985Y3288500D1*
X1562846Y3291782D1*
X1568946Y3294594D1*
X1575248Y3296919D1*
X1581713Y3298743D1*
X1588301Y3300053D1*
X1594972Y3300843D1*
X1601684Y3301106D1*
X1608396Y3300843D1*
X1615066Y3300053D1*
X1621654Y3298743D1*
X1628119Y3296919D1*
X1634421Y3294594D1*
X1640521Y3291782D1*
X1646382Y3288500D1*
X1651967Y3284768D1*
X1657242Y3280610D1*
X1662175Y3276050D1*
X1666734Y3271118D1*
X1670893Y3265842D1*
X1674625Y3260257D1*
X1677907Y3254397D1*
X1680719Y3248297D1*
X1683044Y3241995D1*
X1684867Y3235530D1*
X1686178Y3228942D1*
X1686967Y3222271D1*
X1687231Y3215559D1*
X1686967Y3208847D1*
X1113334Y1825657D2*
X1114897Y1831800D1*
X1109197Y1833501D1*
X1105212Y1835532D1*
X1101594Y1838160D1*
X1044670Y1894960D1*
X1041766Y1898361D1*
X1039429Y1902174D1*
X1037718Y1906306D1*
X1036674Y1910654D1*
X1036323Y1915113D1*
Y2247006D1*
X948985Y2334359D1*
X949005Y2080256D1*
X951945Y2075436D1*
X954107Y2070216D1*
X955426Y2064724D1*
X955869Y2059092D1*
X955426Y2053460D1*
X954107Y2047967D1*
X951945Y2042748D1*
X948993Y2037932D1*
X945325Y2033636D1*
X941029Y2029967D1*
X936212Y2027016D1*
X930993Y2024854D1*
X925500Y2023535D1*
X919869Y2023092D1*
X915630Y2023370D1*
X1113312Y1825687D1*
X1277232Y1811207D2*
X1275930Y1802988D1*
X1273359Y1795075D1*
X1269954Y1788328D1*
X1319619Y1788324D1*
X1316300Y1795012D1*
X1313729Y1802925D1*
X1312427Y1811144D1*
Y1819465D1*
X1313729Y1827683D1*
X1314758Y1831331D1*
X1274959Y1831332D1*
X1276742Y1823663D1*
X1277395Y1815367D1*
X1277232Y1811207D1*
X1357341Y637646D2*
X1360070Y644098D1*
X1364417Y651192D1*
X1369821Y657520D1*
X1376149Y662924D1*
X1383244Y667272D1*
X1390931Y670456D1*
X1399022Y672398D1*
X1407318Y673051D1*
X1415613Y672398D1*
X1423704Y670456D1*
X1431392Y667272D1*
X1438486Y662924D1*
X1444814Y657520D1*
X1450218Y651192D1*
X1454565Y644098D1*
X1457750Y636410D1*
X1459692Y628319D1*
X1460345Y620024D1*
X1460182Y556808D1*
X1458880Y548589D1*
X1456309Y540676D1*
X1452531Y533262D1*
X1447640Y526530D1*
X1441756Y520646D1*
X1435024Y515755D1*
X1427610Y511977D1*
X1419697Y509406D1*
X1411478Y508104D1*
X1403157D1*
X1394939Y509406D1*
X1387025Y511977D1*
X1379611Y515755D1*
X1372879Y520646D1*
X1366995Y526530D1*
X1362104Y533262D1*
X1358327Y540676D1*
X1357341Y543346D1*
X1354576Y536894D1*
X1350228Y529800D1*
X1344824Y523472D1*
X1338497Y518068D1*
X1331402Y513721D1*
X1323715Y510536D1*
X1315623Y508594D1*
X1307328Y507941D1*
X1299033Y508594D1*
X1290942Y510536D1*
X1283254Y513721D1*
X1276159Y518068D1*
X1269832Y523472D1*
X1264428Y529800D1*
X1260080Y536894D1*
X1257352Y543346D1*
X1254586Y536894D1*
X1250239Y529800D1*
X1244835Y523472D1*
X1238507Y518068D1*
X1231413Y513721D1*
X1223725Y510536D1*
X1215634Y508594D1*
X1207339Y507941D1*
X1199043Y508594D1*
X1190952Y510536D1*
X1183265Y513721D1*
X1176170Y518068D1*
X1169842Y523472D1*
X1164438Y529800D1*
X1160091Y536894D1*
X1156906Y544582D1*
X1154964Y552673D1*
X1154312Y560985D1*
X1154474Y624184D1*
X1155776Y632403D1*
X1158348Y640316D1*
X1162125Y647730D1*
X1167016Y654462D1*
X1172900Y660346D1*
X1179632Y665237D1*
X1187046Y669015D1*
X1194960Y671586D1*
X1203178Y672888D1*
X1211499D1*
X1219718Y671586D1*
X1227631Y669015D1*
X1235045Y665237D1*
X1241777Y660346D1*
X1247661Y654462D1*
X1252552Y647730D1*
X1256330Y640316D1*
X1257315Y637646D1*
X1260080Y644098D1*
X1264428Y651192D1*
X1269832Y657520D1*
X1276159Y662924D1*
X1283254Y667272D1*
X1290942Y670456D1*
X1299033Y672398D1*
X1307328Y673051D1*
X1315623Y672398D1*
X1323715Y670456D1*
X1331402Y667272D1*
X1338497Y662924D1*
X1344824Y657520D1*
X1350228Y651192D1*
X1354576Y644098D1*
X1357304Y637646D1*
X1326262Y1094832D2*
X1322890Y1101522D1*
X1320318Y1109436D1*
X1319016Y1117654D1*
Y1125975D1*
X1320318Y1134194D1*
X1322890Y1142108D1*
X1326667Y1149522D1*
X1331558Y1156254D1*
X1337442Y1162137D1*
X1344174Y1167028D1*
X1351588Y1170806D1*
X1359502Y1173377D1*
X1367720Y1174679D1*
X1399440Y1174842D1*
X1414834D1*
X1396684Y1192984D1*
X1211311Y1192978D1*
X1216047Y1190644D1*
X1219665Y1188015D1*
X1223060Y1184621D1*
X1225689Y1181003D1*
X1227719Y1177018D1*
X1228496Y1174910D1*
X1239211Y1174190D1*
X1247302Y1172247D1*
X1254990Y1169063D1*
X1262085Y1164715D1*
X1268412Y1159311D1*
X1273816Y1152984D1*
X1278164Y1145889D1*
X1281348Y1138201D1*
X1283291Y1130110D1*
X1283944Y1121815D1*
X1283291Y1113520D1*
X1281348Y1105429D1*
X1278164Y1097741D1*
X1276535Y1094832D1*
X1326237D1*
X1126242D2*
X1122870Y1101522D1*
X1120298Y1109436D1*
X1118997Y1117654D1*
Y1125975D1*
X1120298Y1134194D1*
X1121327Y1137841D1*
X763764Y1137844D1*
X806793Y1094815D1*
X1126218Y1094832D1*
X1326262Y994821D2*
X1322890Y1001512D1*
X1320318Y1009425D1*
X1319016Y1017644D1*
Y1025965D1*
X1320318Y1034183D1*
X1321347Y1037831D1*
X1281474Y1037832D1*
X1283291Y1030100D1*
X1283944Y1021804D1*
X1283291Y1013509D1*
X1281348Y1005418D1*
X1278164Y997730D1*
X1276535Y994821D1*
X1326203Y994824D1*
X1321848Y904324D2*
X1320318Y909415D1*
X1319016Y917633D1*
Y925954D1*
X1320318Y934173D1*
X1321347Y937820D1*
X1281461Y937824D1*
X1283291Y930089D1*
X1283944Y921794D1*
X1283291Y913499D1*
X1281348Y905408D1*
X1281115Y904318D1*
X1321844D1*
X1337430Y781472D2*
X1331558Y787345D1*
X1326667Y794077D1*
X1322890Y801491D1*
X1320318Y809404D1*
X1319016Y817623D1*
Y825944D1*
X1320318Y834163D1*
X1322890Y842076D1*
X1325451Y847319D1*
X1277402Y847318D1*
X1279907Y842076D1*
X1282478Y834163D1*
X1283780Y825944D1*
Y817623D1*
X1282478Y809404D1*
X1279907Y801491D1*
X1276129Y794077D1*
X1271238Y787345D1*
X1265367Y781472D1*
X1337427Y781479D1*
X1483800Y817623D2*
X1482498Y809404D1*
X1479927Y801491D1*
X1476149Y794077D1*
X1471258Y787345D1*
X1465386Y781472D1*
X1522518Y781479D1*
X1522552Y886576D1*
X1518095Y885918D1*
X1516224Y880037D1*
X1513660Y875004D1*
X1510339Y870434D1*
X1506345Y866439D1*
X1501775Y863119D1*
X1496741Y860554D1*
X1491369Y858808D1*
X1487598Y858139D1*
X1481720Y852761D1*
X1476149Y849490D1*
X1479927Y842076D1*
X1482498Y834163D1*
X1483800Y825944D1*
Y817623D1*
X1165289Y1262225D2*
X1156978Y1262877D1*
X1148887Y1264820D1*
X1141199Y1268004D1*
X1134104Y1272352D1*
X1127777Y1277756D1*
X1122373Y1284083D1*
X1118025Y1291178D1*
X1114841Y1298866D1*
X1112898Y1306957D1*
X1112245Y1315252D1*
X1112898Y1323547D1*
X1114841Y1331638D1*
X1118025Y1339326D1*
X1122373Y1346421D1*
X1127777Y1352748D1*
X1134104Y1358152D1*
X1141199Y1362500D1*
X1147681Y1365239D1*
X1141198Y1368015D1*
X1134103Y1372362D1*
X1127776Y1377766D1*
X1122371Y1384094D1*
X1118024Y1391188D1*
X1114839Y1398876D1*
X1112897Y1406967D1*
X1112244Y1415262D1*
X1112897Y1423558D1*
X1114839Y1431649D1*
X1118024Y1439336D1*
X1122371Y1446431D1*
X1127776Y1452759D1*
X1134103Y1458163D1*
X1141198Y1462510D1*
X1147680Y1465250D1*
X1141198Y1468025D1*
X1134103Y1472373D1*
X1127776Y1477777D1*
X1122371Y1484104D1*
X1120591Y1486768D1*
X1114296Y1487560D1*
X1110042Y1488942D1*
X1106058Y1490973D1*
X1102439Y1493601D1*
X1035839Y1560078D1*
X902803Y1693113D1*
X754372Y1693127D1*
X748732Y1689551D1*
X742588Y1687129D1*
X750951Y1678650D1*
X753580Y1675032D1*
X755610Y1671047D1*
X756992Y1666794D1*
X757692Y1662377D1*
X757780Y1568277D1*
Y1535515D1*
X761356Y1529850D1*
X763518Y1524631D1*
X764836Y1519138D1*
X765280Y1513507D1*
X764836Y1507875D1*
X763518Y1502382D1*
X761356Y1497163D1*
X760725Y1496036D1*
X763518Y1489631D1*
X764836Y1484138D1*
X765280Y1478507D1*
X764836Y1472875D1*
X763518Y1467382D1*
X761356Y1462163D1*
X757782Y1456557D1*
X757780Y1449189D1*
X1005193Y1449135D1*
X1009610Y1448436D1*
X1013863Y1447054D1*
X1017848Y1445023D1*
X1021466Y1442395D1*
X1068503Y1395482D1*
X1075022Y1394020D1*
X1080241Y1391858D1*
X1085058Y1388907D1*
X1089353Y1385238D1*
X1093022Y1380942D1*
X1095974Y1376126D1*
X1098136Y1370907D1*
X1099454Y1365414D1*
X1099898Y1359782D1*
X1099454Y1354151D1*
X1098136Y1348658D1*
X1095974Y1343438D1*
X1093022Y1338622D1*
X1089353Y1334326D1*
X1085058Y1330658D1*
X1080241Y1327706D1*
X1075022Y1325544D1*
X1069529Y1324225D1*
X1063898Y1323782D1*
X1058266Y1324225D1*
X1052773Y1325544D1*
X1047554Y1327706D1*
X1042737Y1330658D1*
X1038442Y1334326D1*
X1034773Y1338622D1*
X1031821Y1343438D1*
X1029660Y1348658D1*
X1028223Y1355148D1*
X991145Y1392230D1*
X929861Y1392223D1*
X936110Y1388107D1*
X941385Y1383948D1*
X946318Y1379389D1*
X950877Y1374456D1*
X955036Y1369181D1*
X958768Y1363596D1*
X962050Y1357735D1*
X964862Y1351635D1*
X967187Y1345333D1*
X969010Y1338868D1*
X970321Y1332280D1*
X971110Y1325610D1*
X971374Y1318898D1*
X971110Y1312186D1*
X970321Y1305515D1*
X969010Y1298927D1*
X967187Y1292462D1*
X964862Y1286160D1*
X962050Y1280060D1*
X958768Y1274199D1*
X955036Y1268614D1*
X950877Y1263339D1*
X946318Y1258407D1*
X941385Y1253847D1*
X936460Y1249965D1*
X1410731Y1249890D1*
X1415148Y1249190D1*
X1419401Y1247808D1*
X1423386Y1245778D1*
X1427004Y1243149D1*
X1493605Y1176673D1*
X1499162Y1171116D1*
X1499149Y1327988D1*
X1489277Y1331281D1*
X1474887D1*
X1476721Y1323547D1*
X1477374Y1315252D1*
X1476721Y1306957D1*
X1474779Y1298866D1*
X1471594Y1291178D1*
X1467247Y1284083D1*
X1461843Y1277756D1*
X1455515Y1272352D1*
X1448420Y1268004D1*
X1440733Y1264820D1*
X1432642Y1262877D1*
X1424347Y1262224D1*
X1361131Y1262388D1*
X1352912Y1263690D1*
X1344999Y1266261D1*
X1337585Y1270039D1*
X1330853Y1274929D1*
X1324969Y1280813D1*
X1320078Y1287545D1*
X1316300Y1294959D1*
X1313729Y1302873D1*
X1312427Y1311091D1*
Y1319412D1*
X1313729Y1327631D1*
X1316300Y1335545D1*
X1320078Y1342959D1*
X1324969Y1349691D1*
X1330853Y1355574D1*
X1337585Y1360465D1*
X1344999Y1364243D1*
X1347699Y1365239D1*
X1341217Y1368015D1*
X1334123Y1372362D1*
X1327795Y1377766D1*
X1322391Y1384094D1*
X1318043Y1391188D1*
X1314859Y1398876D1*
X1312917Y1406967D1*
X1312264Y1415262D1*
X1312917Y1423558D1*
X1314758Y1431289D1*
X1274897Y1431293D1*
X1276701Y1423558D1*
X1277354Y1415262D1*
X1276701Y1406967D1*
X1274759Y1398876D1*
X1271575Y1391188D1*
X1267227Y1384094D1*
X1261823Y1377766D1*
X1255496Y1372362D1*
X1248401Y1368015D1*
X1241919Y1365275D1*
X1248402Y1362500D1*
X1255497Y1358152D1*
X1261824Y1352748D1*
X1267228Y1346421D1*
X1271576Y1339326D1*
X1274760Y1331638D1*
X1276703Y1323547D1*
X1277356Y1315252D1*
X1276703Y1306957D1*
X1274760Y1298866D1*
X1271576Y1291178D1*
X1267228Y1284083D1*
X1261824Y1277756D1*
X1255497Y1272352D1*
X1248402Y1268004D1*
X1240715Y1264820D1*
X1232623Y1262877D1*
X1224328Y1262224D1*
X1165273Y1262260D1*
X1427808Y2268238D2*
X1432642Y2267721D1*
X1440733Y2265779D1*
X1447874Y2262846D1*
Y2328670D1*
X1441470Y2326472D1*
X1435890Y2325589D1*
X1430241D1*
X1427818Y2325875D1*
X1427815Y2268262D1*
X1319673Y1688311D2*
X1316300Y1695001D1*
X1313729Y1702915D1*
X1312427Y1711133D1*
Y1719454D1*
X1313729Y1727673D1*
X1314758Y1731320D1*
X1274890Y1731324D1*
X1276701Y1723589D1*
X1277354Y1715294D1*
X1276701Y1706999D1*
X1274759Y1698908D1*
X1271575Y1691220D1*
X1269946Y1688311D1*
X1319636Y1688312D1*
X1112501Y1720246D2*
X1113709Y1727673D1*
X1116281Y1735587D1*
X1118381Y1740007D1*
X873428Y1984962D1*
Y1959361D1*
X1112502Y1720259D1*
X1319673Y1588300D2*
X1316300Y1594991D1*
X1313729Y1602904D1*
X1312427Y1611123D1*
Y1619444D1*
X1313729Y1627663D1*
X1314758Y1631310D1*
X1274851Y1631312D1*
X1276701Y1623579D1*
X1277354Y1615283D1*
X1276701Y1606988D1*
X1274759Y1598897D1*
X1271575Y1591209D1*
X1269946Y1588300D1*
X1319647Y1588301D1*
X1112845Y1607424D2*
X1112244Y1615283D1*
X1112897Y1623579D1*
X1114839Y1631670D1*
X1116601Y1636270D1*
X1112490Y1639660D1*
X855275Y1896875D1*
X855265Y1864979D1*
X1112811Y1607461D1*
X1319673Y1488290D2*
X1316300Y1494980D1*
X1313729Y1502894D1*
X1312427Y1511112D1*
Y1519433D1*
X1313729Y1527652D1*
X1314758Y1531299D1*
X1274873Y1531300D1*
X1276701Y1523568D1*
X1277354Y1515273D1*
X1276701Y1506978D1*
X1274759Y1498887D1*
X1271575Y1491199D1*
X1269946Y1488290D1*
X1319639Y1488293D1*
X1569452Y1757000D2*
X1568568Y1751420D1*
X1566823Y1746048D1*
X1564258Y1741014D1*
X1560938Y1736444D1*
X1556943Y1732450D1*
X1552373Y1729129D1*
X1547340Y1726564D1*
X1541967Y1724819D1*
X1536388Y1723935D1*
X1529565Y1724074D1*
X1529559Y1695062D1*
X1574167Y1650419D1*
X1574149Y2884048D1*
X1562071Y2896150D1*
X1562063Y1781793D1*
X1565639Y1776168D1*
X1567801Y1770949D1*
X1569120Y1765456D1*
X1569563Y1759824D1*
X1569452Y1757000D1*
X1493200Y950295D2*
X1498806Y953869D1*
X1504025Y956031D1*
X1509518Y957349D1*
X1515150Y957793D1*
X1520781Y957349D1*
X1522546Y956998D1*
X1522552Y990066D1*
X1482763Y950304D1*
X1493164Y950294D1*
X1282677Y2842391D2*
X1276081Y2841756D1*
X1270450Y2842199D1*
X1264957Y2843518D1*
X1259738Y2845680D1*
X1254921Y2848631D1*
X1250626Y2852300D1*
X1246957Y2856596D1*
X1244005Y2861412D1*
X1241843Y2866631D1*
X1240525Y2872124D1*
X1240081Y2877756D1*
X1240525Y2883388D1*
X1241843Y2888881D1*
X1244005Y2894100D1*
X1246957Y2898916D1*
X1250626Y2903212D1*
X1254921Y2906881D1*
X1259738Y2909832D1*
X1264957Y2911994D1*
X1270450Y2913313D1*
X1276081Y2913756D1*
X1281713Y2913313D1*
X1287206Y2911994D1*
X1292425Y2909832D1*
X1298031Y2906258D1*
X1437400Y2906168D1*
X1441817Y2905469D1*
X1446071Y2904087D1*
X1450055Y2902056D1*
X1453673Y2899428D1*
X1472546Y2880680D1*
X1472559Y2916884D1*
X1396487Y2992991D1*
X1365998Y2992978D1*
X1368650Y2984794D1*
X1370049Y2975965D1*
Y2967027D1*
X1368650Y2958198D1*
X1365888Y2949697D1*
X1361830Y2941732D1*
X1356576Y2934501D1*
X1350255Y2928180D1*
X1343024Y2922926D1*
X1335059Y2918868D1*
X1326558Y2916105D1*
X1317729Y2914707D1*
X1308790D1*
X1299962Y2916105D1*
X1291460Y2918868D1*
X1283496Y2922926D1*
X1276264Y2928180D1*
X1269944Y2934501D1*
X1266854Y2938493D1*
X1221576Y2938500D1*
X1221587Y2723644D1*
X1404587Y2540666D1*
X1404566Y2662725D1*
X1327986Y2739299D1*
X1322171Y2738067D1*
X1313260Y2737366D1*
X1304349Y2738067D1*
X1295657Y2740154D1*
X1287398Y2743575D1*
X1279777Y2748245D1*
X1272980Y2754051D1*
X1267175Y2760848D1*
X1262504Y2768469D1*
X1259083Y2776728D1*
X1256997Y2785419D1*
X1256295Y2794331D1*
X1256997Y2803242D1*
X1259083Y2811934D1*
X1262504Y2820192D1*
X1267175Y2827814D1*
X1272980Y2834611D1*
X1279777Y2840416D1*
X1282697Y2842367D1*
X1512263Y1484469D2*
X1511379Y1478890D1*
X1509634Y1473517D1*
X1507069Y1468484D1*
X1503749Y1463914D1*
X1501987Y1462008D1*
X1546650Y1417493D1*
Y1597309D1*
X1504883Y1639092D1*
X1504874Y1509298D1*
X1508450Y1503638D1*
X1510612Y1498419D1*
X1511931Y1492926D1*
X1512374Y1487294D1*
X1512263Y1484469D1*
X1114143Y2789861D2*
X1112745Y2781033D1*
X1109983Y2772531D1*
X1105925Y2764567D1*
X1100671Y2757335D1*
X1094350Y2751015D1*
X1087118Y2745760D1*
X1079154Y2741702D1*
X1070652Y2738940D1*
X1061824Y2737542D1*
X1052885D1*
X1044056Y2738940D1*
X1035555Y2741702D1*
X1027590Y2745760D1*
X1020359Y2751015D1*
X1014038Y2757335D1*
X1008784Y2764567D1*
X1004726Y2772531D1*
X1001964Y2781033D1*
X1000565Y2789861D1*
Y2798800D1*
X1001964Y2807629D1*
X1004726Y2816130D1*
X1008784Y2824095D1*
X1014038Y2831326D1*
X1020359Y2837647D1*
X1027590Y2842901D1*
X1035555Y2846959D1*
X1044056Y2849721D1*
X1052885Y2851120D1*
X1061824D1*
X1070652Y2849721D1*
X1079154Y2846959D1*
X1087118Y2842901D1*
X1094350Y2837647D1*
X1100671Y2831326D1*
X1105925Y2824095D1*
X1109983Y2816130D1*
X1112745Y2807629D1*
X1114143Y2798800D1*
Y2789861D1*
X1370049D2*
X1368650Y2781033D1*
X1368257Y2779637D1*
X1447874Y2700021D1*
Y2824733D1*
X1423362Y2849253D1*
X1328337Y2849256D1*
X1335059Y2846959D1*
X1343024Y2842901D1*
X1350255Y2837647D1*
X1356576Y2831326D1*
X1361830Y2824095D1*
X1365888Y2816130D1*
X1368650Y2807629D1*
X1370049Y2798800D1*
Y2789861D1*
D17*
X557228Y521478D3*
Y621478D3*
Y721478D3*
Y821478D3*
Y921478D3*
Y1021478D3*
Y1121478D3*
Y1221478D3*
Y1321478D3*
Y1421478D3*
Y1521478D3*
Y1621478D3*
Y1721478D3*
Y1821478D3*
Y1921478D3*
Y2021478D3*
Y2121478D3*
Y2221478D3*
Y2321478D3*
Y2421478D3*
Y2521478D3*
Y2621478D3*
Y2721478D3*
Y2921478D3*
Y3021478D3*
Y3121478D3*
Y3221478D3*
D18*
X1194840Y1815367D3*
D19*
X1407318Y590496D3*
X1307328D3*
X1207339D3*
D18*
X1401408Y1121815D3*
X1201388D3*
X1401408Y1021804D3*
X1201388D3*
X1401408Y921794D3*
X1201388D3*
X1401408Y821783D3*
X1201388D3*
X1194801Y1315252D3*
X1394819Y2215346D3*
X1194799D3*
X1394819Y2115336D3*
X1194799D3*
X1394819Y2015325D3*
X1194799D3*
X1394819Y1915315D3*
X1194799D3*
X1394819Y1815304D3*
Y1715294D3*
X1194799D3*
X1394819Y1615283D3*
X1194799D3*
X1394819Y1515273D3*
X1194799D3*
X1394819Y1415262D3*
X1194799D3*
X1394819Y1315252D3*
D45*
X1057354Y2971496D3*
D20*
Y2794331D3*
X1313260D3*
Y2971496D3*
M02*
