M48
INCH
T01C0.015
T02C0.0354
T03C0.0394
T04C0.1181
%
T01
X+010955Y+024219
X+009205Y+023594
X+009199Y+020591
X+007324Y+017216
X+007018Y+016345
X+007293Y+015135
X+007293Y+014785
X+007293Y+014207
X+007285Y+011663
X+010639Y+013598
X+010989Y+010388
X+010239Y+008758
X+010011Y+008217
X+010514Y+008065
X+014830Y+008938
X+015151Y+009218
X+015751Y+008663
X+016026Y+009218
X+014764Y+014873
X+015336Y+017598
X+014331Y+023615
X+012761Y+028778
X+013392Y+031593
X+011815Y+031615
T02
X+011948Y+018154
X+011948Y+019153
X+011948Y+020153
X+011948Y+021153
X+011948Y+022153
X+013948Y+022153
X+013948Y+021153
X+013948Y+020153
X+013948Y+019153
X+013948Y+018153
X+013948Y+017153
X+013948Y+016153
X+013948Y+015153
X+013948Y+014153
X+013948Y+013153
X+014014Y+011218
X+014014Y+010218
X+014014Y+009218
X+014014Y+008218
X+012014Y+008218
X+012014Y+009218
X+012014Y+010218
X+012014Y+011218
X+011948Y+013153
X+011948Y+014153
X+011948Y+015153
X+011948Y+016153
X+011948Y+017153
X+012073Y+005905
X+013073Y+005905
X+014073Y+005905
T03
X+010574Y+029715
X+010574Y+027943
X+013133Y+027943
X+013133Y+029715
T04
X+016010Y+005280
X+008858Y+013189
X+016017Y+032156
T00
M30
