G04 DipTrace 3.2.0.1*
G04 TopMask.gbr*
%MOIN*%
G04 #@! TF.FileFunction,Soldermask,Top*
G04 #@! TF.Part,Single*
%AMOUTLINE1*
4,1,4,
-0.044542,-0.002783,
0.002783,0.044542,
0.044542,0.002783,
-0.002783,-0.044542,
-0.044542,-0.002783,
0*%
%AMOUTLINE4*
4,1,4,
-0.037402,-0.037402,
-0.037402,0.037402,
0.037402,0.037402,
0.037402,-0.037402,
-0.037402,-0.037402,
0*%
%ADD22C,0.11811*%
%ADD28C,0.074803*%
%ADD30O,0.066929X0.125984*%
%ADD32O,0.125984X0.066929*%
%ADD34O,0.204724X0.066929*%
%ADD36R,0.059055X0.066929*%
%ADD43OUTLINE1*%
%ADD46OUTLINE4*%
%FSLAX26Y26*%
G04*
G70*
G90*
G75*
G01*
G04 TopMask*
%LPD*%
D36*
X757386Y2927751D3*
X832189D3*
D43*
X774591Y1573092D3*
X827484Y1520198D3*
D34*
X557228Y521478D3*
Y621478D3*
Y721478D3*
Y821478D3*
Y921478D3*
Y1021478D3*
Y1121478D3*
Y1221478D3*
Y1321478D3*
Y1421478D3*
Y1521478D3*
Y1621478D3*
Y1721478D3*
Y1821478D3*
Y1921478D3*
Y2021478D3*
Y2121478D3*
Y2221478D3*
Y2321478D3*
Y2421478D3*
Y2521478D3*
Y2621478D3*
Y2721478D3*
Y2921478D3*
Y3021478D3*
Y3121478D3*
Y3221478D3*
D22*
X1601047Y528003D3*
X885827Y1318898D3*
X1601684Y3215559D3*
D32*
X1194840Y1815367D3*
D30*
X1407318Y590496D3*
X1307328D3*
X1207339D3*
D32*
X1401408Y1121815D3*
X1201388D3*
X1401408Y1021804D3*
X1201388D3*
X1401408Y921794D3*
X1201388D3*
X1401408Y821783D3*
X1201388D3*
X1194801Y1315252D3*
X1394819Y2215346D3*
X1194799D3*
X1394819Y2115336D3*
X1194799D3*
X1394819Y2015325D3*
X1194799D3*
X1394819Y1915315D3*
X1194799D3*
X1394819Y1815304D3*
Y1715294D3*
X1194799D3*
X1394819Y1615283D3*
X1194799D3*
X1394819Y1515273D3*
X1194799D3*
X1394819Y1415262D3*
X1194799D3*
X1394819Y1315252D3*
D46*
X1057354Y2971496D3*
D28*
Y2794331D3*
X1313260D3*
Y2971496D3*
M02*
