G04 DipTrace 3.2.0.1*
G04 TopSilk.gbr*
%MOIN*%
G04 #@! TF.FileFunction,Legend,Top*
G04 #@! TF.Part,Single*
%ADD10C,0.009843*%
%ADD38C,0.00772*%
%ADD39C,0.006176*%
%ADD40C,0.009264*%
%ADD41C,0.004632*%
%FSLAX26Y26*%
G04*
G70*
G90*
G75*
G01*
G04 TopSilk*
%LPD*%
X720005Y2902180D2*
D10*
Y2953322D1*
X730077Y1581437D2*
X766245Y1617606D1*
X1114445Y2882913D2*
G02X1114445Y2882913I70862J0D01*
G01*
X1094752Y2764796D2*
X1275862D1*
X1303432Y2843517D2*
Y2922286D1*
X1275862Y3001031D2*
X1110506D1*
X1067182Y2922286D2*
Y2843517D1*
X1126261Y2882889D2*
G02X1126261Y2882889I59046J0D01*
G01*
X758429Y3030501D2*
D38*
Y2980261D1*
X775176D1*
X782361Y2982693D1*
X787170Y2987446D1*
X789546Y2992255D1*
X791923Y2999385D1*
Y3011378D1*
X789546Y3018563D1*
X787170Y3023316D1*
X782361Y3028125D1*
X775176Y3030501D1*
X758429D1*
X807362Y3020884D2*
X812170Y3023316D1*
X819355Y3030446D1*
Y2980261D1*
X757055Y1690829D2*
Y1640589D1*
X773801D1*
X780986Y1643021D1*
X785795Y1647774D1*
X788172Y1652582D1*
X790548Y1659712D1*
Y1671705D1*
X788172Y1678891D1*
X785795Y1683644D1*
X780986Y1688452D1*
X773801Y1690829D1*
X757055D1*
X808419Y1678835D2*
Y1681212D1*
X810796Y1686020D1*
X813172Y1688397D1*
X817981Y1690773D1*
X827542D1*
X832296Y1688397D1*
X834672Y1686020D1*
X837104Y1681212D1*
Y1676459D1*
X834672Y1671650D1*
X829919Y1664520D1*
X805987Y1640589D1*
X839481D1*
X547104Y3324228D2*
X516043D1*
Y3273988D1*
X547104D1*
X516043Y3300297D2*
X535166D1*
X598414Y3312290D2*
X596037Y3317043D1*
X591229Y3321852D1*
X586475Y3324228D1*
X576914D1*
X572105Y3321852D1*
X567352Y3317043D1*
X564920Y3312290D1*
X562544Y3305105D1*
Y3293112D1*
X564920Y3285982D1*
X567352Y3281173D1*
X572105Y3276420D1*
X576914Y3273988D1*
X586475D1*
X591229Y3276420D1*
X596037Y3281173D1*
X598414Y3285982D1*
X1634236Y994468D2*
D39*
Y969575D1*
X1674428D1*
X1653382D2*
Y984873D1*
X1643787Y1035516D2*
X1639984Y1033614D1*
X1636138Y1029767D1*
X1634236Y1025965D1*
Y1018316D1*
X1636138Y1014469D1*
X1639984Y1010666D1*
X1643787Y1008721D1*
X1649535Y1006820D1*
X1659130D1*
X1664834Y1008721D1*
X1668680Y1010666D1*
X1672483Y1014469D1*
X1674428Y1018316D1*
Y1025965D1*
X1672483Y1029767D1*
X1668680Y1033614D1*
X1664834Y1035515D1*
X1643831Y1049812D2*
X1641930D1*
X1638083Y1051714D1*
X1636182Y1053615D1*
X1634281Y1057462D1*
Y1065111D1*
X1636182Y1068914D1*
X1638083Y1070815D1*
X1641930Y1072760D1*
X1645732D1*
X1649579Y1070815D1*
X1655283Y1067012D1*
X1674428Y1047867D1*
Y1074662D1*
X1634236Y1111862D2*
Y1087013D1*
X1674428D1*
Y1111862D1*
X1653382Y1087013D2*
Y1102312D1*
X1634236Y1147161D2*
X1674428D1*
X1653382D2*
X1649535Y1143359D1*
X1647634Y1139512D1*
Y1133764D1*
X1649535Y1129962D1*
X1653382Y1126115D1*
X1659130Y1124214D1*
X1662932D1*
X1668680Y1126115D1*
X1672483Y1129962D1*
X1674428Y1133764D1*
Y1139512D1*
X1672483Y1143359D1*
X1668680Y1147161D1*
X1649535Y1182461D2*
X1680176D1*
X1685880Y1180559D1*
X1687826Y1178658D1*
X1689727Y1174811D1*
Y1169063D1*
X1687826Y1165261D1*
X1655283Y1182461D2*
X1651480Y1178658D1*
X1649535Y1174811D1*
Y1169063D1*
X1651480Y1165261D1*
X1655283Y1161414D1*
X1661031Y1159513D1*
X1664878D1*
X1670582Y1161414D1*
X1674428Y1165261D1*
X1676330Y1169063D1*
Y1174811D1*
X1674428Y1178658D1*
X1670582Y1182461D1*
X1659130Y1194812D2*
Y1217760D1*
X1655283D1*
X1651436Y1215859D1*
X1649535Y1213957D1*
X1647634Y1210111D1*
Y1204363D1*
X1649535Y1200560D1*
X1653382Y1196713D1*
X1659130Y1194812D1*
X1662932D1*
X1668680Y1196713D1*
X1672483Y1200560D1*
X1674428Y1204363D1*
Y1210111D1*
X1672483Y1213957D1*
X1668680Y1217760D1*
X1639984Y1295787D2*
X1636138Y1291984D1*
X1634236Y1286236D1*
Y1278587D1*
X1636138Y1272839D1*
X1639984Y1268992D1*
X1643787D1*
X1647634Y1270938D1*
X1649535Y1272839D1*
X1651436Y1276642D1*
X1655283Y1288138D1*
X1657184Y1291984D1*
X1659130Y1293886D1*
X1662932Y1295787D1*
X1668680D1*
X1672483Y1291984D1*
X1674428Y1286236D1*
Y1278587D1*
X1672483Y1272839D1*
X1668680Y1268992D1*
X1634236Y1308138D2*
X1636138Y1310040D1*
X1634236Y1311985D1*
X1632291Y1310040D1*
X1634236Y1308138D1*
X1647634Y1310040D2*
X1674428D1*
X1647634Y1324336D2*
X1674428D1*
X1655283D2*
X1649535Y1330084D1*
X1647634Y1333931D1*
Y1339635D1*
X1649535Y1343482D1*
X1655283Y1345383D1*
X1674428D1*
X1655283D2*
X1649535Y1351131D1*
X1647634Y1354978D1*
Y1360682D1*
X1649535Y1364528D1*
X1655283Y1366474D1*
X1674428D1*
X1647634Y1378825D2*
X1687826D1*
X1653382D2*
X1649579Y1382672D1*
X1647634Y1386475D1*
Y1392223D1*
X1649579Y1396069D1*
X1653382Y1399872D1*
X1659130Y1401817D1*
X1662976D1*
X1668680Y1399872D1*
X1672527Y1396069D1*
X1674428Y1392223D1*
Y1386475D1*
X1672527Y1382672D1*
X1668680Y1378825D1*
X1634236Y1414169D2*
X1674428D1*
X1659130Y1426520D2*
Y1449468D1*
X1655283D1*
X1651436Y1447567D1*
X1649535Y1445666D1*
X1647634Y1441819D1*
Y1436071D1*
X1649535Y1432268D1*
X1653382Y1428422D1*
X1659130Y1426520D1*
X1662932D1*
X1668680Y1428422D1*
X1672483Y1432268D1*
X1674428Y1436071D1*
Y1441819D1*
X1672483Y1445666D1*
X1668680Y1449468D1*
X1634236Y1500700D2*
X1674428D1*
X1647634Y1513052D2*
X1674428D1*
X1655283D2*
X1649535Y1518800D1*
X1647634Y1522647D1*
Y1528350D1*
X1649535Y1532197D1*
X1655283Y1534098D1*
X1674428D1*
X1634236Y1552198D2*
X1666779D1*
X1672483Y1554099D1*
X1674428Y1557946D1*
Y1561748D1*
X1647634Y1546450D2*
Y1559847D1*
X1659130Y1574100D2*
Y1597048D1*
X1655283D1*
X1651436Y1595146D1*
X1649535Y1593245D1*
X1647634Y1589398D1*
Y1583650D1*
X1649535Y1579848D1*
X1653382Y1576001D1*
X1659130Y1574100D1*
X1662932D1*
X1668680Y1576001D1*
X1672483Y1579848D1*
X1674428Y1583650D1*
Y1589398D1*
X1672483Y1593245D1*
X1668680Y1597048D1*
X1647634Y1609399D2*
X1674428D1*
X1659130D2*
X1653382Y1611345D1*
X1649535Y1615147D1*
X1647634Y1618994D1*
Y1624742D1*
X1634236Y1652392D2*
Y1648589D1*
X1636138Y1644743D1*
X1641886Y1642841D1*
X1674428D1*
X1647634Y1637093D2*
Y1650491D1*
Y1687691D2*
X1674428D1*
X1653382D2*
X1649535Y1683889D1*
X1647634Y1680042D1*
Y1674338D1*
X1649535Y1670491D1*
X1653382Y1666689D1*
X1659130Y1664743D1*
X1662932D1*
X1668680Y1666689D1*
X1672483Y1670491D1*
X1674428Y1674338D1*
Y1680042D1*
X1672483Y1683889D1*
X1668680Y1687691D1*
X1653382Y1723035D2*
X1649535Y1719188D1*
X1647634Y1715341D1*
Y1709637D1*
X1649535Y1705791D1*
X1653382Y1701988D1*
X1659130Y1700043D1*
X1662932D1*
X1668680Y1701988D1*
X1672483Y1705791D1*
X1674428Y1709637D1*
Y1715341D1*
X1672483Y1719188D1*
X1668680Y1723035D1*
X1659130Y1735386D2*
Y1758334D1*
X1655283D1*
X1651436Y1756433D1*
X1649535Y1754531D1*
X1647634Y1750685D1*
Y1744937D1*
X1649535Y1741134D1*
X1653382Y1737287D1*
X1659130Y1735386D1*
X1662932D1*
X1668680Y1737287D1*
X1672483Y1741134D1*
X1674428Y1744937D1*
Y1750685D1*
X1672483Y1754531D1*
X1668680Y1758334D1*
X1647634Y1809566D2*
X1674428Y1821062D1*
X1647634Y1832514D1*
X1643831Y1846811D2*
X1641930D1*
X1638083Y1848712D1*
X1636182Y1850614D1*
X1634280Y1854460D1*
Y1862110D1*
X1636182Y1865912D1*
X1638083Y1867813D1*
X1641930Y1869759D1*
X1645732D1*
X1649579Y1867813D1*
X1655283Y1864011D1*
X1674428Y1844866D1*
Y1871660D1*
X965941Y2990523D2*
D40*
Y2964723D1*
X968859Y2956101D1*
X971711Y2953183D1*
X977415Y2950331D1*
X983185D1*
X988889Y2953183D1*
X991807Y2956101D1*
X994659Y2964723D1*
Y2990523D1*
X934371D1*
X965941Y2970427D2*
X934371Y2950331D1*
X957319Y2931804D2*
Y2897382D1*
X963089D1*
X968859Y2900234D1*
X971711Y2903086D1*
X974563Y2908856D1*
Y2917478D1*
X971711Y2923182D1*
X965941Y2928952D1*
X957319Y2931804D1*
X951615D1*
X942993Y2928952D1*
X937289Y2923182D1*
X934371Y2917478D1*
Y2908856D1*
X937289Y2903086D1*
X942993Y2897382D1*
X965941Y2847285D2*
X971711Y2850137D1*
X974563Y2858759D1*
Y2867381D1*
X971711Y2876003D1*
X965941Y2878855D1*
X960237Y2876003D1*
X957319Y2870233D1*
X954467Y2855907D1*
X951615Y2850137D1*
X945845Y2847285D1*
X942993D1*
X937289Y2850137D1*
X934371Y2858759D1*
Y2867381D1*
X937289Y2876003D1*
X942993Y2878855D1*
X957319Y2828758D2*
Y2794336D1*
X963089D1*
X968859Y2797188D1*
X971711Y2800040D1*
X974563Y2805810D1*
Y2814432D1*
X971711Y2820136D1*
X965941Y2825906D1*
X957319Y2828758D1*
X951615D1*
X942993Y2825906D1*
X937289Y2820136D1*
X934371Y2814432D1*
Y2805810D1*
X937289Y2800040D1*
X942993Y2794336D1*
X994659Y2767187D2*
X945845D1*
X937289Y2764335D1*
X934371Y2758565D1*
Y2752861D1*
X974563Y2775809D2*
Y2755713D1*
X1386687Y2323692D2*
D38*
X1355570D1*
Y2273452D1*
Y2299761D2*
X1374693D1*
X1437996Y2311754D2*
X1435619Y2316507D1*
X1430811Y2321316D1*
X1426057Y2323692D1*
X1416496D1*
X1411687Y2321316D1*
X1406934Y2316507D1*
X1404502Y2311754D1*
X1402126Y2304569D1*
Y2292575D1*
X1404502Y2285446D1*
X1406934Y2280637D1*
X1411687Y2275884D1*
X1416496Y2273452D1*
X1426057D1*
X1430811Y2275884D1*
X1435619Y2280637D1*
X1437996Y2285446D1*
X1661305Y2823888D2*
D41*
Y2836821D1*
X1659879Y2841099D1*
X1658420Y2842558D1*
X1655568Y2843984D1*
X1651257D1*
X1648405Y2842558D1*
X1646946Y2841099D1*
X1645520Y2836821D1*
Y2823888D1*
X1675664D1*
Y2876229D2*
X1645520Y2864722D1*
X1675664Y2853248D1*
X1665616Y2857559D2*
Y2871918D1*
X1645520Y2885492D2*
X1675664D1*
Y2898425D1*
X1674205Y2902736D1*
X1672779Y2904162D1*
X1669927Y2905588D1*
X1665616D1*
X1662731Y2904162D1*
X1661305Y2902736D1*
X1659879Y2898425D1*
X1658420Y2902736D1*
X1656994Y2904162D1*
X1654142Y2905588D1*
X1651257D1*
X1648405Y2904162D1*
X1646946Y2902736D1*
X1645520Y2898425D1*
Y2885492D1*
X1659879D2*
Y2898425D1*
X1645520Y2914852D2*
X1675664D1*
Y2927785D1*
X1674205Y2932096D1*
X1672779Y2933522D1*
X1669927Y2934948D1*
X1665616D1*
X1662731Y2933522D1*
X1661305Y2932096D1*
X1659879Y2927785D1*
X1658420Y2932096D1*
X1656994Y2933522D1*
X1654142Y2934948D1*
X1651257D1*
X1648405Y2933522D1*
X1646946Y2932096D1*
X1645520Y2927785D1*
Y2914852D1*
X1659879D2*
Y2927785D1*
X1652716Y2974831D2*
X1651291D1*
X1648405Y2976257D1*
X1646980Y2977683D1*
X1645554Y2980568D1*
Y2986305D1*
X1646980Y2989157D1*
X1648405Y2990583D1*
X1651291Y2992042D1*
X1654142D1*
X1657027Y2990583D1*
X1661305Y2987731D1*
X1675664Y2973372D1*
Y2993468D1*
X1645554Y3011354D2*
X1646980Y3007042D1*
X1651291Y3004157D1*
X1658453Y3002731D1*
X1662764D1*
X1669927Y3004157D1*
X1674238Y3007042D1*
X1675664Y3011354D1*
Y3014205D1*
X1674238Y3018516D1*
X1669927Y3021368D1*
X1662764Y3022827D1*
X1658453D1*
X1651291Y3021368D1*
X1646980Y3018516D1*
X1645554Y3014205D1*
Y3011354D1*
X1651291Y3021368D2*
X1669927Y3004157D1*
X1651291Y3032091D2*
X1649831Y3034976D1*
X1645554Y3039287D1*
X1675664D1*
X1645554Y3055714D2*
X1646979Y3051436D1*
X1649831Y3049977D1*
X1652716D1*
X1655568Y3051436D1*
X1657027Y3054288D1*
X1658453Y3060025D1*
X1659879Y3064336D1*
X1662764Y3067188D1*
X1665616Y3068614D1*
X1669927Y3068613D1*
X1672779Y3067188D1*
X1674238Y3065762D1*
X1675664Y3061451D1*
Y3055714D1*
X1674238Y3051436D1*
X1672779Y3049977D1*
X1669927Y3048551D1*
X1665616D1*
X1662764Y3049977D1*
X1659879Y3052862D1*
X1658453Y3057140D1*
X1657027Y3062877D1*
X1655568Y3065762D1*
X1652716Y3067188D1*
X1649831D1*
X1646979Y3065762D1*
X1645554Y3061451D1*
Y3055714D1*
X1198071Y469260D2*
Y443427D1*
X1185172Y456327D2*
X1211005D1*
X1234627Y441288D2*
Y471399D1*
X1220268Y451336D1*
X1241790D1*
X1258216Y471399D2*
X1253939Y469973D1*
X1252480Y467121D1*
Y464236D1*
X1253939Y461384D1*
X1256791Y459925D1*
X1262528Y458499D1*
X1266839Y457073D1*
X1269690Y454188D1*
X1271116Y451336D1*
Y447025D1*
X1269690Y444173D1*
X1268264Y442714D1*
X1263953Y441288D1*
X1258216D1*
X1253939Y442714D1*
X1252480Y444173D1*
X1251054Y447025D1*
Y451336D1*
X1252480Y454188D1*
X1255365Y457073D1*
X1259642Y458499D1*
X1265379Y459925D1*
X1268264Y461384D1*
X1269690Y464236D1*
Y467121D1*
X1268264Y469973D1*
X1263953Y471399D1*
X1258216D1*
X1427729Y515188D2*
D40*
Y495092D1*
X1335937D1*
Y515188D1*
X1271496D2*
X1271495Y495092D1*
X1179704D1*
Y515188D1*
X1341520Y469545D2*
D41*
Y443712D1*
X1328620Y456612D2*
X1354453D1*
X1365176Y464521D2*
Y465947D1*
X1366602Y468832D1*
X1368028Y470258D1*
X1370913Y471684D1*
X1376650D1*
X1379502Y470258D1*
X1380928Y468832D1*
X1382387Y465947D1*
Y463095D1*
X1380928Y460210D1*
X1378076Y455932D1*
X1363717Y441573D1*
X1383813D1*
X1393076D2*
X1413172Y471684D1*
X1435336Y469545D2*
Y443712D1*
X1422436Y456612D2*
X1448269D1*
X1460418Y471684D2*
X1476169D1*
X1467581Y460210D1*
X1471892D1*
X1474743Y458784D1*
X1476169Y457358D1*
X1477629Y453047D1*
Y450195D1*
X1476169Y445884D1*
X1473317Y442999D1*
X1469006Y441573D1*
X1464695D1*
X1460418Y442999D1*
X1458992Y444458D1*
X1457533Y447310D1*
X1304939Y515244D2*
D38*
Y438751D1*
M02*
